<svg width="135" height="48" viewBox="0 0 135 48" fill="none" xmlns="http://www.w3.org/2000/svg">
<path d="M37.9521 4.65501L39.2451 3.73927L39.093 3.51033C37.6479 1.37361 34.8338 0 32.0958 0C30.4225 0 28.8254 0.534181 27.3803 1.44992C26.0113 2.36566 25.2507 3.66296 25.2507 3.66296C24.4141 5.03657 23.8817 6.5628 23.8817 8.16534C23.8817 9.8442 24.4141 11.4467 25.3268 12.8203L36.0507 27.3196C35.6704 27.8537 35.138 28.3116 34.6817 28.6932C33.5408 29.4563 32.2479 29.9142 30.9549 29.9142C28.6732 29.9142 26.4676 28.8458 25.2507 27.0906L25.0986 26.8617L23.8056 27.7774L23.9577 28.0064C25.4028 30.1431 28.2169 31.5167 30.9549 31.5167C32.6282 31.5167 34.2254 30.9825 35.5944 30.0668C36.431 29.4563 37.1915 28.6932 37.7239 27.8537C38.5606 26.4801 39.093 24.9539 39.093 23.3514C39.093 21.6725 38.5606 20.07 37.6479 18.6963L26.9239 4.19714C27.3042 3.66296 27.7606 3.20509 28.293 2.89984C29.4338 2.13672 30.7268 1.67886 32.0197 1.67886C34.3014 1.67886 36.5831 2.82353 37.7239 4.50238L37.9521 4.65501ZM36.3549 19.6121C37.1155 20.7568 37.5718 22.0541 37.5718 23.3514C37.5718 24.1908 37.4197 25.0302 37.0394 25.8696L26.6958 11.9809C25.9352 10.8362 25.4789 9.53895 25.4789 8.24165C25.4789 7.40223 25.631 6.5628 26.0113 5.72337L36.3549 19.6121ZM126.177 16.6359V31.4404H119.865V17.7043L110.738 0.152623H117.963L125.493 14.5755L133.175 0.152623H135L126.177 16.6359ZM116.899 1.75517H113.4L121.462 17.2464V29.8378H124.504V16.4833L116.899 1.75517ZM90.7352 8.39428H95.2986V1.75517H90.7352V0.0763116H107.239V1.67886H96.9718V8.39428H107.239V9.99682H96.9718V29.7615H107.239V31.3641H90.7352V8.39428ZM92.3324 29.7615H95.2986V10.0731H92.3324V29.7615ZM69.7437 0.0763116H75.9803V29.7615H86.2479V31.3641H69.7437V0.0763116ZM71.3409 29.7615H74.307V1.75517H71.3409V29.7615ZM61.3014 10.0731H52.2507V31.3641H45.938V8.47059H50.6535V1.75517H46.0901V0.0763116H52.3268V8.47059H61.3775V0.0763116H62.9747V31.3641H61.3775V10.0731H61.3014ZM50.6535 10.0731H47.6113V29.7615H50.6535V10.0731ZM12.7775 7.17329L6.23662 31.4404H0L8.44225 0.152623H12.5493L20.9916 31.4404H19.3183L12.7775 7.17329ZM11.3324 1.75517H9.73521L2.12958 29.7615H5.09577L12.0169 4.04452L11.3324 1.75517ZM92.7887 39.682H91.5718V47.7711H96.9718V46.7027H92.7887V39.682ZM83.5099 40.7504H79.0986V43.1161H83.2056V44.1844H79.0986V46.779H83.5099V47.8474H77.8817V39.682H83.5099V40.7504ZM42.8197 47.7711H44.0366V39.682H42.8197V43.1161H38.7887V39.682H37.5718V47.7711H38.7887V44.1081H42.8197V47.7711ZM71.0366 40.7504H68.3746V47.7711H67.1577V40.7504H64.4958V39.682H70.9606V40.7504H71.0366ZM57.6507 43.7265C57.6507 44.1081 57.5746 44.4897 57.4986 44.8712C57.4225 45.2528 57.2704 45.558 57.0423 45.8633C56.8141 46.1685 56.5859 46.3975 56.2056 46.6264C55.9014 46.779 55.4451 46.9316 54.9887 46.9316C54.5324 46.9316 54.1521 46.8553 53.7718 46.6264C53.4676 46.4738 53.1634 46.1685 52.9352 45.8633C52.707 45.558 52.5549 45.2528 52.4789 44.8712C52.4028 44.4897 52.3268 44.1081 52.3268 43.7265C52.3268 43.345 52.4028 42.9634 52.4789 42.5819C52.5549 42.2003 52.707 41.8951 52.9352 41.5898C53.1634 41.2846 53.3915 41.0556 53.7718 40.8267C54.0761 40.6741 54.5324 40.5215 54.9887 40.5215C55.4451 40.5215 55.8254 40.5978 56.2056 40.8267C56.5099 40.9793 56.8141 41.2846 57.0423 41.5898C57.2704 41.8951 57.4225 42.2003 57.4986 42.5819C57.5746 42.9634 57.6507 43.345 57.6507 43.7265ZM58.8676 43.7265C58.8676 43.1924 58.7915 42.6582 58.6394 42.124C58.4873 41.5898 58.2592 41.132 57.8789 40.7504C57.5746 40.3688 57.1183 40.0636 56.662 39.8347C56.2056 39.6057 55.5972 39.4531 54.9887 39.4531C54.3803 39.4531 53.7718 39.6057 53.3155 39.8347C52.8592 40.0636 52.4028 40.3688 52.0986 40.7504C51.7944 41.132 51.5662 41.5898 51.338 42.124C51.1859 42.6582 51.1099 43.1924 51.1099 43.7265C51.1099 44.2607 51.1859 44.7949 51.338 45.3291C51.4901 45.8633 51.7183 46.3211 52.0986 46.7027C52.4028 47.0843 52.8592 47.3895 53.3155 47.6184C53.7718 47.8474 54.3803 48 54.9887 48C55.5972 48 56.2056 47.8474 56.662 47.6184C57.1183 47.3895 57.5746 47.0843 57.8789 46.7027C58.1831 46.3211 58.4113 45.8633 58.6394 45.3291C58.7155 44.7949 58.8676 44.2607 58.8676 43.7265Z" fill="#DFB596"/>
</svg>
